<?xml version="1.0" encoding="UTF-8"?><svg id="icons" xmlns="http://www.w3.org/2000/svg" viewBox="0 0 128 128"><defs><style>.cls-1{fill:#070514;stroke-width:0px;}</style></defs><g id="row2"><g id="_5"><g id="down"><path class="cls-1" d="m64,.3C28.7.3,0,28.8,0,64s28.7,63.7,64,63.7,64-28.5,64-63.7S99.3.3,64,.3Zm0,121c-31.8,0-57.6-25.6-57.6-57.3S32.2,6.7,64,6.7s57.6,25.7,57.6,57.3-25.8,57.3-57.6,57.3Zm21.7-63.2l-15.3,12.2v-28.6c0-2.2-2.3-3.2-4.4-3.2h-4c-2.2,0-3.9,1.8-3.9,3.9v28.4l-15.8-12.7c-2.2,0-3.9,1.8-3.9,3.9v7.1l25.6,26.7,25.6-26.7v-7.1c0-2.2-1.8-3.9-3.9-3.9Z"/></g></g></g></svg>